<?xml version="1.0" encoding="utf-8"?>
<!-- Generator: Adobe Illustrator 18.0.0, SVG Export Plug-In . SVG Version: 6.00 Build 0)  -->
<!DOCTYPE svg PUBLIC "-//W3C//DTD SVG 1.1//EN" "http://www.w3.org/Graphics/SVG/1.1/DTD/svg11.dtd">
<svg version="1.1" id="Layer_1" xmlns="http://www.w3.org/2000/svg" xmlns:xlink="http://www.w3.org/1999/xlink" x="0px" y="0px"
	 viewBox="0 0 280 50" enable-background="new 0 0 280 50" xml:space="preserve">
<g>
	<path fill="#FFFFFF" d="M5.8,26c0.4,1.5,1.1,2.6,2.2,3.4c1.1,0.8,2.5,1.1,4.1,1.1c1.3,0,2.9-0.7,2.9-2.1C15,25,3.2,27,3.2,20.8
		c0-3.4,3.5-5.1,6.8-5.1c2,0,3.9,0.7,5.5,1.7l0.7-1.2h2.1v5.7h-2.4c-0.4-1.3-1.1-2.2-2-2.8c-0.9-0.7-2.1-1-3.5-1
		c-1.2,0-2.8,0.5-2.8,1.8c0,2.7,11.8,1.4,11.8,7.7c0,3.6-3.3,5.1-6.8,5.1c-2.2,0-4.5-0.3-6.2-1.7l-0.7,1.2H3.1V26H5.8z"/>
	<path fill="#FFFFFF" d="M21.1,18.5v-2.2c3.8-0.2,4.8-3.3,5.1-6.5h2.3v6.4h4.9v2.3h-4.8v10.1c0,0.7,0.4,1.1,1.4,1.1
		c1.2,0,1.6-0.6,1.6-2v-3h2.5v2.9c0,3.6-2.2,5.2-5.1,5.2c-2.8,0-4.8-1.1-4.8-3.8V18.5H21.1z"/>
	<path fill="#FFFFFF" d="M55.6,26.3v1c0,3.8-1.7,5.4-4.8,5.4c-1.9,0-3.5-0.7-3.8-2.5c-1.4,1.9-3.8,2.5-6.1,2.5
		c-2.9,0-5.2-1.3-5.2-4.3c0-6.6,11.2-3.4,11.2-8.3c0-2.2-2-2.6-4-2.6c-1,0-2.8,0.3-3.5,1.1c1.4-0.2,2.5,0.4,2.5,1.8
		c0,1.5-1.2,2-2.6,2c-1.6,0-2.7-1.1-2.7-2.5c0-3.5,4.6-4.2,7.5-4.2c5,0,7.2,2.1,7.2,5V29c0,0.8,0.3,1.1,0.9,1.1c0.6,0,1-0.5,1-2.6
		v-1.3H55.6z M46.9,23.8l-4,1.6c-1.1,0.4-2.2,1-2.2,2.6c0,1.4,0.7,2.2,2.2,2.2c2.5,0,4-2,4-4.2V23.8z"/>
	<path fill="#FFFFFF" d="M70.6,29.7c4.1,0,6.1,1.6,6.1,4.5c0,2.3-1.3,5.3-10.5,5.3c-7.7,0-9.6-1.8-9.6-3.8c0-1.9,1.9-2.6,3.7-2.8
		v-0.1c-2-0.3-3.1-1-3.1-3.1c0-1.8,1.5-3.1,3.4-3.3v-0.1c-2-0.9-2.8-2.6-2.8-4.6c0-4.2,4-6.1,8.1-6.1c2.5,0,4.9,0.7,6.3,1.7
		c1-1.2,2.3-1.7,3.9-1.7c2.2,0,3.8,1.4,3.8,3.4c0,1.4-0.7,2.4-2.4,2.4c-1.2,0-2.3-0.6-2.3-1.8c0-1.1,0.6-1.7,1.7-2
		c0.1-0.1-0.2-0.5-1.3-0.5c-1,0-1.9,0.8-2.5,1.5c0.7,1.1,1,2,1,3.1c0,4.4-4.1,6-8.3,6c-1.3,0-2.6-0.1-4-0.6c-0.6,0.3-1,0.7-1,1.3
		c0,0.6,0.6,1.2,3.2,1.2H70.6z M64.4,33.1c-2.6,0-3.9,0.9-3.9,2.3c0,1.2,1.5,2.1,5.7,2.1c4.1,0,6.3-0.7,6.3-2.4c0-1.1-1-2-2.4-2
		H64.4z M66.1,25.8c2.2,0,3.2-1.4,3.2-3.9c0-2.9-1.1-4.3-3.2-4.3c-2.1,0-3.2,1.4-3.2,4.1C62.9,24.5,64,25.8,66.1,25.8z"/>
	<path fill="#FFFFFF" d="M86.4,24.6c-0.1,2.7,0.8,5.5,4.3,5.5c2.7,0,4-1.3,4.5-3.6h3.1c-0.5,3.9-3.1,6.2-8,6.2c-5.8,0-8.9-3-8.9-8.5
		c0-5,3.5-8.5,8.7-8.5c6.1,0,8.7,5,8.3,8.9H86.4z M93.4,22.4c0-2.2-0.7-4.3-3.4-4.3c-2.5,0-3.5,2.1-3.6,4.3H93.4z"/>
	<path fill="#A0BB58" d="M109.6,15.7c5.6,0,9.6,3.1,9.6,8.5c0,5.4-4,8.5-9.6,8.5c-5.6,0-9.6-3.1-9.6-8.5
		C100,18.8,104,15.7,109.6,15.7z M109.6,30.5c3,0,4.6-2.2,4.6-6.3c0-4.1-1.6-6.3-4.6-6.3c-3,0-4.6,2.2-4.6,6.3
		C105,28.3,106.6,30.5,109.6,30.5z"/>
	<path fill="#A0BB58" d="M128.7,18.8L128.7,18.8c1.6-2.1,2.7-3.1,4.7-3.1c2.4,0,4.5,1.3,4.5,3.8c0,1.5-1,2.9-2.8,2.9
		c-1.5,0-2.7-0.8-2.7-2.2c0-1.3,1.1-2,2.5-2.1c-0.4-0.4-1-0.5-1.6-0.5c-3.1,0-4.6,2.8-4.6,5.3v5.7c0,1,0.4,1.4,1.5,1.4h2.4v2.3
		h-11.8V30h2.1c1,0,1.5-0.4,1.5-1.4v-8.8c0-1-0.4-1.4-1.5-1.4h-2.1v-2.3h7.9V18.8z"/>
	<path fill="#A0BB58" d="M153.6,29.7c4.1,0,6.1,1.6,6.1,4.5c0,2.3-1.3,5.3-10.5,5.3c-7.7,0-9.6-1.8-9.6-3.8c0-1.9,1.9-2.6,3.7-2.8
		v-0.1c-2-0.3-3.1-1-3.1-3.1c0-1.8,1.5-3.1,3.4-3.3v-0.1c-2-0.9-2.8-2.6-2.8-4.6c0-4.2,4-6.1,8.1-6.1c2.5,0,4.9,0.7,6.3,1.7
		c1-1.2,2.3-1.7,3.9-1.7c2.2,0,3.8,1.4,3.8,3.4c0,1.4-0.7,2.4-2.4,2.4c-1.2,0-2.3-0.6-2.3-1.8c0-1.1,0.6-1.7,1.7-2
		c0.1-0.1-0.2-0.5-1.3-0.5c-1,0-1.9,0.8-2.5,1.5c0.7,1.1,1,2,1,3.1c0,4.4-4.1,6-8.3,6c-1.3,0-2.6-0.1-4-0.6c-0.6,0.3-1,0.7-1,1.3
		c0,0.6,0.6,1.2,3.2,1.2H153.6z M147.4,33.1c-2.6,0-3.9,0.9-3.9,2.3c0,1.2,1.5,2.1,5.7,2.1c4.1,0,6.3-0.7,6.3-2.4c0-1.1-1-2-2.4-2
		H147.4z M149.1,25.8c2.2,0,3.2-1.4,3.2-3.9c0-2.9-1.1-4.3-3.2-4.3c-2.1,0-3.2,1.4-3.2,4.1C145.9,24.5,147,25.8,149.1,25.8z"/>
	<path fill="#A0BB58" d="M184.3,26.3v1c0,3.8-1.7,5.4-4.8,5.4c-1.9,0-3.5-0.7-3.8-2.5c-1.4,1.9-3.8,2.5-6.1,2.5
		c-2.9,0-5.2-1.3-5.2-4.3c0-6.6,11.2-3.4,11.2-8.3c0-2.2-2-2.6-4-2.6c-1,0-2.8,0.3-3.5,1.1c1.4-0.2,2.5,0.4,2.5,1.8
		c0,1.5-1.2,2-2.6,2c-1.6,0-2.7-1.1-2.7-2.5c0-3.5,4.6-4.2,7.5-4.2c5,0,7.2,2.1,7.2,5V29c0,0.8,0.3,1.1,0.9,1.1c0.6,0,1-0.5,1-2.6
		v-1.3H184.3z M175.6,23.8l-4,1.6c-1.1,0.4-2.2,1-2.2,2.6c0,1.4,0.7,2.2,2.2,2.2c2.5,0,4-2,4-4.2V23.8z"/>
	<path fill="#A0BB58" d="M193.1,19.2L193.1,19.2c1.6-2.1,3.7-3.5,6.6-3.5c3.3,0,5.3,1.8,5.3,5.5v7.4c0,1,0.4,1.4,2.2,1.4h1.3v2.3
		h-10.9V30h0.9c1.6,0,2-0.4,2-1.4v-7.1c0-2.6-1.5-3.1-3.3-3.1c-1.8,0-4.2,1.7-4.2,3.9v6.3c0,1,0.4,1.4,1.5,1.4h1.5v2.3h-11V30h2.1
		c1,0,1.5-0.4,1.5-1.4v-8.3c0-1.5-0.4-1.8-2.4-1.8h-1.2v-2.3h8V19.2z"/>
	<path fill="#A0BB58" d="M210.2,32.2V30h1.7c1,0,1.5-0.4,1.5-1.4v-8.8c0-1-0.4-1.4-1.5-1.4h-1.7v-2.3h7.6v12.4c0,1,0.4,1.4,1.5,1.4
		h1.8v2.3H210.2z M215.2,9.1c1.5,0,2.7,1.1,2.7,2.5c0,1.4-1.2,2.5-2.7,2.5c-1.5,0-2.7-1.1-2.7-2.5C212.5,10.2,213.7,9.1,215.2,9.1z"
		/>
	<path fill="#A0BB58" d="M222.7,32.2v-2.6l11.1-11.2h-4.6c-1.5,0-3,0.8-3,2.7v2.1h-2.8v-7.1h15.8v2.6L228.1,30h4.4
		c3.1,0,4-1.6,4-3.9v-1.4h2.8v7.6H222.7z"/>
	<path fill="#A0BB58" d="M246.2,24.6c-0.1,2.7,0.8,5.5,4.3,5.5c2.7,0,4-1.3,4.5-3.6h3.1c-0.5,3.9-3.1,6.2-8,6.2
		c-5.8,0-8.9-3-8.9-8.5c0-5,3.5-8.5,8.7-8.5c6.1,0,8.7,5,8.3,8.9H246.2z M253.2,22.4c0-2.2-0.7-4.3-3.4-4.3c-2.5,0-3.5,2.1-3.6,4.3
		H253.2z"/>
	<path fill="#A0BB58" d="M267.8,18.8L267.8,18.8c1.6-2.1,2.7-3.1,4.7-3.1c2.4,0,4.5,1.3,4.5,3.8c0,1.5-1,2.9-2.8,2.9
		c-1.5,0-2.7-0.8-2.7-2.2c0-1.3,1.1-2,2.5-2.1c-0.4-0.4-1-0.5-1.6-0.5c-3.1,0-4.6,2.8-4.6,5.3v5.7c0,1,0.4,1.4,1.5,1.4h2.4v2.3
		h-11.8V30h2.1c1,0,1.5-0.4,1.5-1.4v-8.8c0-1-0.4-1.4-1.5-1.4h-2.1v-2.3h7.9V18.8z"/>
</g>
</svg>
