<?xml version="1.0" encoding="utf-8"?>
<!-- Generator: Adobe Illustrator 18.0.0, SVG Export Plug-In . SVG Version: 6.00 Build 0)  -->
<!DOCTYPE svg PUBLIC "-//W3C//DTD SVG 1.1//EN" "http://www.w3.org/Graphics/SVG/1.1/DTD/svg11.dtd">
<svg version="1.1" id="Layer_1" xmlns="http://www.w3.org/2000/svg" xmlns:xlink="http://www.w3.org/1999/xlink" x="0px" y="0px"
	 viewBox="0 0 280 50" enable-background="new 0 0 280 50" xml:space="preserve">
<g>
	<path d="M4.4,18.1c0.4,1.5,1.1,2.7,2.2,3.4c1.1,0.8,2.5,1.1,4.2,1.1c1.3,0,2.9-0.7,2.9-2.1c0-3.4-11.9-1.5-11.9-7.7
		c0-3.4,3.6-5.2,6.9-5.2c2,0,3.9,0.7,5.6,1.7L15,8.2h2.1V14h-2.5c-0.5-1.3-1.1-2.2-2-2.8c-0.9-0.7-2.1-1-3.6-1
		c-1.2,0-2.9,0.5-2.9,1.9c0,2.7,11.9,1.4,11.9,7.8c0,3.6-3.4,5.1-6.9,5.1c-2.3,0-4.5-0.3-6.3-1.8l-0.8,1.2H1.6v-6.3H4.4z"/>
	<path d="M19.9,10.5V8.3c3.9-0.2,4.8-3.4,5.2-6.6h2.3v6.4h5v2.3h-4.9v10.2c0,0.7,0.4,1.1,1.4,1.1c1.2,0,1.6-0.6,1.6-2v-3.1h2.5v2.9
		c0,3.6-2.2,5.2-5.2,5.2c-2.8,0-4.8-1.1-4.8-3.8V10.5H19.9z"/>
	<path d="M54.9,18.4v1c0,3.9-1.7,5.5-4.9,5.5c-1.9,0-3.5-0.7-3.8-2.6c-1.4,1.9-3.8,2.6-6.2,2.6c-2.9,0-5.3-1.3-5.3-4.4
		c0-6.7,11.3-3.5,11.3-8.4c0-2.2-2-2.6-4-2.6c-1.1,0-2.8,0.3-3.5,1.1c1.4-0.2,2.5,0.4,2.5,1.8c0,1.6-1.2,2-2.6,2
		c-1.6,0-2.7-1.1-2.7-2.6c0-3.5,4.6-4.3,7.6-4.3c5.1,0,7.3,2.1,7.3,5v8.5c0,0.8,0.3,1.1,0.9,1.1c0.6,0,1-0.5,1-2.6v-1.3H54.9z
		 M46,15.8l-4,1.7c-1.1,0.5-2.3,1-2.3,2.6c0,1.5,0.7,2.2,2.3,2.2c2.6,0,4-2,4-4.2V15.8z"/>
	<path d="M70,21.8c4.1,0,6.2,1.6,6.2,4.6c0,2.3-1.4,5.3-10.6,5.3c-7.8,0-9.7-1.8-9.7-3.8c0-1.9,2-2.7,3.8-2.8V25
		c-2-0.3-3.2-1-3.2-3.2c0-1.8,1.5-3.2,3.5-3.3v-0.1c-2-0.9-2.8-2.6-2.8-4.7c0-4.2,4.1-6.1,8.2-6.1c2.5,0,5,0.7,6.4,1.7
		c1-1.2,2.3-1.7,3.9-1.7c2.2,0,3.8,1.4,3.8,3.4c0,1.5-0.8,2.5-2.4,2.5c-1.2,0-2.3-0.6-2.3-1.8c0-1.1,0.6-1.8,1.7-2
		c0.1-0.1-0.2-0.5-1.3-0.5c-1.1,0-2,0.8-2.5,1.5c0.7,1.1,1.1,2,1.1,3.1c0,4.4-4.2,6.1-8.4,6.1c-1.3,0-2.6-0.1-4-0.6
		c-0.6,0.3-1,0.7-1,1.3c0,0.6,0.6,1.2,3.2,1.2H70z M63.7,25.3c-2.6,0-4,0.9-4,2.3c0,1.2,1.5,2.1,5.7,2.1c4.1,0,6.4-0.7,6.4-2.5
		c0-1.1-1-2-2.4-2H63.7z M65.4,17.9c2.2,0,3.3-1.4,3.3-4c0-2.9-1.1-4.3-3.3-4.3c-2.2,0-3.3,1.4-3.3,4.2
		C62.2,16.5,63.3,17.9,65.4,17.9z"/>
	<path d="M86,16.7c-0.1,2.7,0.8,5.6,4.3,5.6c2.7,0,4.1-1.3,4.6-3.7H98c-0.5,4-3.1,6.3-8.1,6.3c-5.9,0-9-3-9-8.6
		c0-5.1,3.6-8.6,8.8-8.6c6.2,0,8.8,5.1,8.4,9H86z M93,14.4c0-2.2-0.7-4.3-3.4-4.3c-2.6,0-3.5,2.1-3.6,4.3H93z"/>
	<path d="M109.5,7.7c5.7,0,9.7,3.1,9.7,8.6c0,5.5-4,8.6-9.7,8.6s-9.7-3.1-9.7-8.6C99.8,10.8,103.8,7.7,109.5,7.7z M109.5,22.6
		c3.1,0,4.7-2.2,4.7-6.3c0-4.2-1.6-6.3-4.7-6.3c-3.1,0-4.7,2.2-4.7,6.3C104.8,20.4,106.4,22.6,109.5,22.6z"/>
	<path d="M128.9,10.8L128.9,10.8c1.6-2.1,2.8-3.2,4.8-3.2c2.4,0,4.6,1.3,4.6,3.8c0,1.6-1,2.9-2.9,2.9c-1.5,0-2.7-0.8-2.7-2.2
		c0-1.3,1.1-2,2.5-2.1c-0.4-0.4-1-0.5-1.6-0.5c-3.1,0-4.7,2.8-4.7,5.3v5.8c0,1,0.5,1.4,1.5,1.4h2.4v2.3h-11.9v-2.3h2.1
		c1.1,0,1.5-0.4,1.5-1.4v-8.9c0-1-0.5-1.4-1.5-1.4h-2.1V8.2h8V10.8z"/>
	<path d="M154.1,21.8c4.1,0,6.2,1.6,6.2,4.6c0,2.3-1.4,5.3-10.6,5.3c-7.8,0-9.7-1.8-9.7-3.8c0-1.9,2-2.7,3.8-2.8V25
		c-2-0.3-3.2-1-3.2-3.2c0-1.8,1.5-3.2,3.5-3.3v-0.1c-2-0.9-2.8-2.6-2.8-4.7c0-4.2,4.1-6.1,8.2-6.1c2.5,0,5,0.7,6.4,1.7
		c1-1.2,2.3-1.7,3.9-1.7c2.2,0,3.8,1.4,3.8,3.4c0,1.5-0.8,2.5-2.4,2.5c-1.2,0-2.3-0.6-2.3-1.8c0-1.1,0.6-1.8,1.7-2
		c0.1-0.1-0.2-0.5-1.3-0.5c-1.1,0-2,0.8-2.5,1.5c0.7,1.1,1.1,2,1.1,3.1c0,4.4-4.2,6.1-8.4,6.1c-1.3,0-2.6-0.1-4-0.6
		c-0.6,0.3-1,0.7-1,1.3c0,0.6,0.6,1.2,3.2,1.2H154.1z M147.8,25.3c-2.6,0-4,0.9-4,2.3c0,1.2,1.5,2.1,5.7,2.1c4.1,0,6.4-0.7,6.4-2.5
		c0-1.1-1-2-2.4-2H147.8z M149.5,17.9c2.2,0,3.3-1.4,3.3-4c0-2.9-1.1-4.3-3.3-4.3c-2.2,0-3.3,1.4-3.3,4.2
		C146.2,16.5,147.3,17.9,149.5,17.9z"/>
	<path d="M185.2,18.4v1c0,3.9-1.7,5.5-4.9,5.5c-1.9,0-3.5-0.7-3.8-2.6c-1.4,1.9-3.8,2.6-6.2,2.6c-2.9,0-5.3-1.3-5.3-4.4
		c0-6.7,11.3-3.5,11.3-8.4c0-2.2-2-2.6-4-2.6c-1.1,0-2.8,0.3-3.5,1.1c1.4-0.2,2.5,0.4,2.5,1.8c0,1.6-1.2,2-2.6,2
		c-1.6,0-2.7-1.1-2.7-2.6c0-3.5,4.6-4.3,7.6-4.3c5.1,0,7.3,2.1,7.3,5v8.5c0,0.8,0.3,1.1,0.9,1.1c0.6,0,1-0.5,1-2.6v-1.3H185.2z
		 M176.3,15.8l-4,1.7c-1.1,0.5-2.3,1-2.3,2.6c0,1.5,0.7,2.2,2.3,2.2c2.6,0,4-2,4-4.2V15.8z"/>
	<path d="M194,11.2L194,11.2c1.6-2.1,3.7-3.5,6.7-3.5c3.3,0,5.4,1.8,5.4,5.6v7.5c0,1,0.5,1.4,2.3,1.4h1.4v2.3h-11v-2.3h0.9
		c1.6,0,2-0.4,2-1.4v-7.2c0-2.6-1.5-3.2-3.3-3.2c-1.8,0-4.2,1.8-4.2,4v6.4c0,1,0.5,1.4,1.5,1.4h1.5v2.3h-11.1v-2.3h2.2
		c1.1,0,1.5-0.4,1.5-1.4v-8.4c0-1.5-0.5-1.9-2.4-1.9h-1.2V8.2h8.1V11.2z"/>
	<path d="M211.4,24.4v-2.3h1.7c1.1,0,1.5-0.4,1.5-1.4v-8.9c0-1-0.5-1.4-1.5-1.4h-1.7V8.2h7.7v12.5c0,1,0.5,1.4,1.5,1.4h1.9v2.3
		H211.4z M216.3,1c1.5,0,2.7,1.1,2.7,2.5c0,1.4-1.2,2.5-2.7,2.5c-1.5,0-2.7-1.1-2.7-2.5C213.6,2.1,214.9,1,216.3,1z"/>
	<path d="M223.9,24.4v-2.6l11.3-11.3h-4.6c-1.5,0-3,0.8-3,2.8v2.1h-2.8V8.2h16v2.6l-11.3,11.3h4.4c3.1,0,4-1.6,4-4v-1.5h2.8v7.7
		H223.9z"/>
	<path d="M247.8,16.7c-0.1,2.7,0.8,5.6,4.3,5.6c2.7,0,4.1-1.3,4.6-3.7h3.1c-0.5,4-3.1,6.3-8.1,6.3c-5.9,0-9-3-9-8.6
		c0-5.1,3.6-8.6,8.8-8.6c6.2,0,8.8,5.1,8.4,9H247.8z M254.8,14.4c0-2.2-0.7-4.3-3.4-4.3c-2.6,0-3.5,2.1-3.6,4.3H254.8z"/>
	<path d="M269.6,10.8L269.6,10.8c1.6-2.1,2.8-3.2,4.8-3.2c2.4,0,4.6,1.3,4.6,3.8c0,1.6-1,2.9-2.9,2.9c-1.5,0-2.7-0.8-2.7-2.2
		c0-1.3,1.1-2,2.5-2.1c-0.4-0.4-1-0.5-1.6-0.5c-3.1,0-4.7,2.8-4.7,5.3v5.8c0,1,0.5,1.4,1.5,1.4h2.4v2.3h-11.9v-2.3h2.1
		c1.1,0,1.5-0.4,1.5-1.4v-8.9c0-1-0.5-1.4-1.5-1.4h-2.1V8.2h8V10.8z"/>
</g>
</svg>
