<?xml version="1.0" encoding="utf-8"?>
<!-- Generator: Adobe Illustrator 18.0.0, SVG Export Plug-In . SVG Version: 6.00 Build 0)  -->
<!DOCTYPE svg PUBLIC "-//W3C//DTD SVG 1.1//EN" "http://www.w3.org/Graphics/SVG/1.1/DTD/svg11.dtd">
<svg version="1.1" id="Layer_1" xmlns="http://www.w3.org/2000/svg" xmlns:xlink="http://www.w3.org/1999/xlink" x="0px" y="0px"
	 viewBox="0 0 280 50" enable-background="new 0 0 280 50" xml:space="preserve">
<path fill="#FFFFFF" d="M5.3,27c0.4,1.5,1.1,2.7,2.2,3.4c1.1,0.8,2.5,1.1,4.1,1.1c1.3,0,2.9-0.7,2.9-2.1c0-3.4-11.8-1.4-11.8-7.6
	c0-3.4,3.6-5.2,6.9-5.2c2,0,3.9,0.7,5.5,1.7l0.8-1.2h2.1v5.7h-2.4c-0.5-1.3-1.1-2.2-2-2.8c-0.9-0.7-2.1-1-3.5-1
	c-1.2,0-2.9,0.5-2.9,1.9c0,2.7,11.8,1.4,11.8,7.7c0,3.6-3.3,5.1-6.9,5.1c-2.3,0-4.5-0.3-6.3-1.8L5,33.3H2.5V27H5.3z"/>
<path fill="#FFFFFF" d="M20.7,19.4v-2.2c3.8-0.2,4.8-3.3,5.1-6.5h2.3v6.4h5v2.3h-4.8v10.2c0,0.7,0.4,1.1,1.4,1.1
	c1.2,0,1.6-0.6,1.6-2v-3.1h2.5v2.9c0,3.6-2.2,5.2-5.1,5.2c-2.8,0-4.8-1.1-4.8-3.8V19.4H20.7z"/>
<path fill="#FFFFFF" d="M55.4,27.3v1c0,3.9-1.7,5.5-4.8,5.5c-1.9,0-3.5-0.7-3.8-2.5c-1.4,1.9-3.8,2.5-6.2,2.5
	c-2.9,0-5.2-1.3-5.2-4.4c0-6.7,11.3-3.4,11.3-8.3c0-2.2-2-2.6-4-2.6c-1.1,0-2.8,0.3-3.5,1.1c1.4-0.2,2.5,0.4,2.5,1.8
	c0,1.5-1.2,2-2.6,2c-1.6,0-2.7-1.1-2.7-2.5c0-3.5,4.6-4.3,7.5-4.3c5.1,0,7.2,2.1,7.2,5v8.4c0,0.8,0.3,1.1,0.9,1.1c0.6,0,1-0.5,1-2.6
	v-1.3H55.4z M46.7,24.8l-4,1.7c-1.1,0.4-2.3,1-2.3,2.6c0,1.4,0.7,2.2,2.3,2.2c2.6,0,4-2,4-4.2V24.8z"/>
<path fill="#FFFFFF" d="M70.5,30.7c4.1,0,6.2,1.6,6.2,4.5c0,2.3-1.4,5.3-10.6,5.3c-7.7,0-9.6-1.8-9.6-3.8c0-1.9,2-2.7,3.8-2.8v-0.1
	c-2-0.3-3.2-1-3.2-3.1c0-1.8,1.5-3.2,3.5-3.3v-0.1c-2-0.9-2.8-2.6-2.8-4.6c0-4.2,4.1-6.1,8.2-6.1c2.5,0,5,0.7,6.4,1.7
	c1-1.2,2.3-1.7,3.9-1.7c2.2,0,3.8,1.4,3.8,3.4c0,1.4-0.8,2.4-2.4,2.4c-1.2,0-2.3-0.6-2.3-1.8c0-1.1,0.6-1.8,1.7-2
	c0.1-0.1-0.2-0.5-1.3-0.5c-1.1,0-2,0.8-2.5,1.5c0.7,1.1,1.1,2,1.1,3.1c0,4.4-4.1,6-8.4,6c-1.3,0-2.6-0.1-4-0.6c-0.6,0.3-1,0.7-1,1.3
	c0,0.6,0.6,1.2,3.2,1.2H70.5z M64.2,34.2c-2.6,0-3.9,0.9-3.9,2.3c0,1.2,1.5,2.1,5.7,2.1c4.1,0,6.3-0.7,6.3-2.4c0-1.1-1-2-2.4-2H64.2
	z M65.9,26.8c2.2,0,3.3-1.4,3.3-4c0-2.9-1.1-4.3-3.3-4.3c-2.1,0-3.2,1.4-3.2,4.1C62.7,25.5,63.8,26.8,65.9,26.8z"/>
<path fill="#FFFFFF" d="M86.4,25.6c-0.1,2.7,0.8,5.6,4.3,5.6c2.7,0,4.1-1.3,4.5-3.6h3.1c-0.5,3.9-3.1,6.2-8.1,6.2
	c-5.8,0-8.9-3-8.9-8.6c0-5,3.5-8.6,8.7-8.6c6.2,0,8.7,5.1,8.3,9H86.4z M93.3,23.4c0-2.2-0.7-4.3-3.4-4.3c-2.6,0-3.5,2.1-3.6,4.3
	H93.3z"/>
<path fill="#FFFFFF" d="M109.7,16.6c5.6,0,9.6,3.1,9.6,8.6c0,5.5-4,8.6-9.6,8.6s-9.6-3.1-9.6-8.6C100,19.7,104,16.6,109.7,16.6z
	 M109.7,31.5c3,0,4.6-2.2,4.6-6.3c0-4.1-1.6-6.3-4.6-6.3c-3,0-4.6,2.2-4.6,6.3C105.1,29.3,106.6,31.5,109.7,31.5z"/>
<path fill="#FFFFFF" d="M128.9,19.8L128.9,19.8c1.6-2.1,2.7-3.1,4.8-3.1c2.4,0,4.5,1.3,4.5,3.8c0,1.5-1,2.9-2.9,2.9
	c-1.5,0-2.7-0.8-2.7-2.2c0-1.3,1.1-2,2.5-2.1c-0.4-0.4-1-0.5-1.6-0.5c-3.1,0-4.7,2.8-4.7,5.3v5.7c0,1,0.4,1.4,1.5,1.4h2.4v2.3h-11.9
	V31h2.1c1.1,0,1.5-0.4,1.5-1.4v-8.8c0-1-0.4-1.4-1.5-1.4h-2.1v-2.3h8V19.8z"/>
<path fill="#FFFFFF" d="M153.9,30.7c4.1,0,6.2,1.6,6.2,4.5c0,2.3-1.4,5.3-10.6,5.3c-7.7,0-9.6-1.8-9.6-3.8c0-1.9,2-2.7,3.8-2.8v-0.1
	c-2-0.3-3.2-1-3.2-3.1c0-1.8,1.5-3.2,3.5-3.3v-0.1c-2-0.9-2.8-2.6-2.8-4.6c0-4.2,4.1-6.1,8.2-6.1c2.5,0,5,0.7,6.4,1.7
	c1-1.2,2.3-1.7,3.9-1.7c2.2,0,3.8,1.4,3.8,3.4c0,1.4-0.8,2.4-2.4,2.4c-1.2,0-2.3-0.6-2.3-1.8c0-1.1,0.6-1.8,1.7-2
	c0.1-0.1-0.2-0.5-1.3-0.5c-1.1,0-2,0.8-2.5,1.5c0.7,1.1,1.1,2,1.1,3.1c0,4.4-4.1,6-8.4,6c-1.3,0-2.6-0.1-4-0.6c-0.6,0.3-1,0.7-1,1.3
	c0,0.6,0.6,1.2,3.2,1.2H153.9z M147.7,34.2c-2.6,0-3.9,0.9-3.9,2.3c0,1.2,1.5,2.1,5.7,2.1c4.1,0,6.3-0.7,6.3-2.4c0-1.1-1-2-2.4-2
	H147.7z M149.4,26.8c2.2,0,3.3-1.4,3.3-4c0-2.9-1.1-4.3-3.3-4.3c-2.1,0-3.2,1.4-3.2,4.1C146.2,25.5,147.3,26.8,149.4,26.8z"/>
<path fill="#FFFFFF" d="M184.8,27.3v1c0,3.9-1.7,5.5-4.8,5.5c-1.9,0-3.5-0.7-3.8-2.5c-1.4,1.9-3.8,2.5-6.2,2.5
	c-2.9,0-5.2-1.3-5.2-4.4c0-6.7,11.3-3.4,11.3-8.3c0-2.2-2-2.6-4-2.6c-1.1,0-2.8,0.3-3.5,1.1c1.4-0.2,2.5,0.4,2.5,1.8
	c0,1.5-1.2,2-2.6,2c-1.6,0-2.7-1.1-2.7-2.5c0-3.5,4.6-4.3,7.5-4.3c5.1,0,7.2,2.1,7.2,5v8.4c0,0.8,0.3,1.1,0.9,1.1c0.6,0,1-0.5,1-2.6
	v-1.3H184.8z M176.1,24.8l-4,1.7c-1.1,0.4-2.3,1-2.3,2.6c0,1.4,0.7,2.2,2.3,2.2c2.6,0,4-2,4-4.2V24.8z"/>
<path fill="#FFFFFF" d="M193.6,20.2L193.6,20.2c1.6-2.1,3.7-3.5,6.6-3.5c3.3,0,5.3,1.8,5.3,5.5v7.4c0,1,0.5,1.4,2.3,1.4h1.4v2.3h-11
	V31h0.9c1.6,0,2-0.4,2-1.4v-7.2c0-2.6-1.5-3.1-3.3-3.1c-1.8,0-4.2,1.8-4.2,4v6.3c0,1,0.5,1.4,1.5,1.4h1.5v2.3h-11V31h2.1
	c1.1,0,1.5-0.4,1.5-1.4v-8.3c0-1.5-0.5-1.9-2.4-1.9h-1.2v-2.3h8.1V20.2z"/>
<path fill="#FFFFFF" d="M210.8,33.3V31h1.7c1.1,0,1.5-0.4,1.5-1.4v-8.8c0-1-0.5-1.4-1.5-1.4h-1.7v-2.3h7.7v12.5c0,1,0.4,1.4,1.5,1.4
	h1.8v2.3H210.8z M215.8,10c1.5,0,2.7,1.1,2.7,2.5c0,1.4-1.2,2.5-2.7,2.5c-1.5,0-2.7-1.1-2.7-2.5C213.1,11.1,214.3,10,215.8,10z"/>
<path fill="#FFFFFF" d="M223.3,33.3v-2.6l11.2-11.3h-4.6c-1.5,0-3,0.8-3,2.8v2.1h-2.8v-7.1H240v2.6L228.8,31h4.4c3.1,0,4-1.6,4-3.9
	v-1.4h2.8v7.6H223.3z"/>
<path fill="#FFFFFF" d="M247,25.6c-0.1,2.7,0.8,5.6,4.3,5.6c2.7,0,4.1-1.3,4.5-3.6h3.1c-0.5,3.9-3.1,6.2-8.1,6.2
	c-5.8,0-8.9-3-8.9-8.6c0-5,3.5-8.6,8.7-8.6c6.2,0,8.7,5.1,8.3,9H247z M254,23.4c0-2.2-0.7-4.3-3.4-4.3c-2.6,0-3.5,2.1-3.6,4.3H254z"
	/>
<path fill="#FFFFFF" d="M268.7,19.8L268.7,19.8c1.6-2.1,2.7-3.1,4.8-3.1c2.4,0,4.5,1.3,4.5,3.8c0,1.5-1,2.9-2.9,2.9
	c-1.5,0-2.7-0.8-2.7-2.2c0-1.3,1.1-2,2.5-2.1c-0.4-0.4-1-0.5-1.6-0.5c-3.1,0-4.7,2.8-4.7,5.3v5.7c0,1,0.4,1.4,1.5,1.4h2.4v2.3h-11.9
	V31h2.1c1.1,0,1.5-0.4,1.5-1.4v-8.8c0-1-0.4-1.4-1.5-1.4h-2.1v-2.3h8V19.8z"/>
</svg>
